<svg xmlns="http://www.w3.org/2000/svg">
    <symbol id="home-icon" viewBox="0 0 48 48">
        <title>Icon home</title>
        <path d="M 23.951172 4 A 1.50015 1.50015 0 0 0 23.072266 4.3222656 L 8.859375 15.519531 C 7.0554772 16.941163 6 19.113506 6 21.410156 L 6 40.5 C 6 41.863594 7.1364058 43 8.5 43 L 18.5 43 C 19.863594 43 21 41.863594 21 40.5 L 21 30.5 C 21 30.204955 21.204955 30 21.5 30 L 26.5 30 C 26.795045 30 27 30.204955 27 30.5 L 27 40.5 C 27 41.863594 28.136406 43 29.5 43 L 39.5 43 C 40.863594 43 42 41.863594 42 40.5 L 42 21.410156 C 42 19.113506 40.944523 16.941163 39.140625 15.519531 L 24.927734 4.3222656 A 1.50015 1.50015 0 0 0 23.951172 4 z M 24 7.4101562 L 37.285156 17.876953 C 38.369258 18.731322 39 20.030807 39 21.410156 L 39 40 L 30 40 L 30 30.5 C 30 28.585045 28.414955 27 26.5 27 L 21.5 27 C 19.585045 27 18 28.585045 18 30.5 L 18 40 L 9 40 L 9 21.410156 C 9 20.030807 9.6307412 18.731322 10.714844 17.876953 L 24 7.4101562 z"/>
    </symbol>
    <symbol id="portfolio-icon" viewBox="0 0 122.88 100.53">
        <title>Icon portfolio</title>
        <path d="M56.9,50.27h9.08c1.33,0,2.55,0.54,3.42,1.42c0.88,0.88,1.42,2.09,1.42,3.42v19.14c0,1.33-0.54,2.54-1.42,3.42 c-0.88,0.88-2.09,1.42-3.42,1.42H56.9c-1.33,0-2.54-0.54-3.42-1.42c-0.88-0.88-1.42-2.09-1.42-3.42V55.12 c0-1.33,0.54-2.55,1.42-3.42C54.36,50.82,55.57,50.27,56.9,50.27L56.9,50.27z M6.97,13.96h31.5V4.94c0-1.36,0.55-2.59,1.45-3.49 C40.81,0.55,42.05,0,43.41,0h36.06c1.36,0,2.59,0.55,3.49,1.45c0.89,0.89,1.45,2.13,1.45,3.49v9.03h31.5 c1.92,0,3.66,0.78,4.93,2.05c1.26,1.26,2.05,3.01,2.05,4.93v72.62c0,1.92-0.78,3.66-2.05,4.93c-1.26,1.26-3.01,2.05-4.93,2.05H6.97 c-1.92,0-3.66-0.78-4.93-2.05C0.78,97.22,0,95.48,0,93.56V20.94c0-1.92,0.78-3.66,2.05-4.93C3.31,14.75,5.05,13.96,6.97,13.96 L6.97,13.96z M79.47,4.33H43.41c-0.17,0-0.32,0.07-0.43,0.18c-0.11,0.11-0.18,0.26-0.18,0.43v8.93h37.28V4.94 c0-0.17-0.07-0.32-0.18-0.43C79.79,4.39,79.64,4.33,79.47,4.33L79.47,4.33z M4.32,55.63c15.93,4.58,27.71,6.55,43.65,7.29v4.33 c-15.93-0.73-27.71-2.65-43.65-7.14v33.44c0,0.73,0.3,1.39,0.78,1.87c0.48,0.48,1.14,0.78,1.87,0.78h108.93 c0.73,0,1.39-0.3,1.87-0.78c0.48-0.48,0.78-1.14,0.78-1.87V60.12c-15.91,4.48-26.98,6.4-42.88,7.13v-4.33 c15.91-0.75,26.98-2.72,42.88-7.29V20.94c0-0.73-0.3-1.39-0.78-1.87c-0.48-0.48-1.14-0.78-1.87-0.78H6.97 c-0.73,0-1.39,0.3-1.87,0.78c-0.48,0.48-0.78,1.14-0.78,1.87V55.63L4.32,55.63z M65.98,54.6H56.9c-0.14,0-0.27,0.06-0.36,0.15 c-0.09,0.09-0.15,0.22-0.15,0.36v19.14c0,0.14,0.06,0.27,0.15,0.36c0.09,0.1,0.22,0.15,0.36,0.15h9.08c0.14,0,0.27-0.06,0.36-0.15 c0.09-0.09,0.15-0.22,0.15-0.36V55.12c0-0.14-0.06-0.27-0.15-0.36C66.25,54.66,66.12,54.6,65.98,54.6L65.98,54.6z"/>
    </symbol>
    <symbol id="contact-icon" viewBox="0 0 122.88 88.86">
        <title>Icon contact</title>
        <path d="M7.05,0H115.83a7.07,7.07,0,0,1,7,7.05V81.81a7,7,0,0,1-1.22,4,2.78,2.78,0,0,1-.66,1,2.62,2.62,0,0,1-.66.46,7,7,0,0,1-4.51,1.65H7.05a7.07,7.07,0,0,1-7-7V7.05A7.07,7.07,0,0,1,7.05,0Zm-.3,78.84L43.53,40.62,6.75,9.54v69.3ZM49.07,45.39,9.77,83.45h103L75.22,45.39l-11,9.21h0a2.7,2.7,0,0,1-3.45,0L49.07,45.39Zm31.6-4.84,35.46,38.6V9.2L80.67,40.55ZM10.21,5.41,62.39,47.7,112.27,5.41Z"/>
    </symbol>
    <symbol id="contact-icon" viewBox="0 0 122.88 88.86">
        <title>Icon contact</title>
        <path d="M7.05,0H115.83a7.07,7.07,0,0,1,7,7.05V81.81a7,7,0,0,1-1.22,4,2.78,2.78,0,0,1-.66,1,2.62,2.62,0,0,1-.66.46,7,7,0,0,1-4.51,1.65H7.05a7.07,7.07,0,0,1-7-7V7.05A7.07,7.07,0,0,1,7.05,0Zm-.3,78.84L43.53,40.62,6.75,9.54v69.3ZM49.07,45.39,9.77,83.45h103L75.22,45.39l-11,9.21h0a2.7,2.7,0,0,1-3.45,0L49.07,45.39Zm31.6-4.84,35.46,38.6V9.2L80.67,40.55ZM10.21,5.41,62.39,47.7,112.27,5.41Z"/>
    </symbol>
    <symbol id="go-icon" viewBox="0 0 122.88 122.88" >
        <title>Icon go</title>
        <path d="M61.439,0L61.439,0v0.016c-16.976,0-32.335,6.874-43.443,17.981S0.016,44.464,0.016,61.438H0v0.002l0,0h0.016 c0,16.978,6.874,32.336,17.981,43.444c11.107,11.106,26.467,17.98,43.441,17.98v0.016h0.002l0,0v-0.016 c16.977,0,32.336-6.874,43.443-17.98c11.107-11.108,17.981-26.467,17.981-43.441h0.016v-0.003l0,0h-0.016 c0-16.976-6.874-32.335-17.981-43.442S78.416,0.016,61.442,0.016V0H61.439L61.439,0z M51.181,42.479 c-1.909-1.964-1.864-5.1,0.098-7.01c1.961-1.909,5.1-1.866,7.009,0.098l21.838,22.519l-3.554,3.456l3.569-3.458 c1.91,1.971,1.862,5.116-0.108,7.027c-0.057,0.057-0.115,0.109-0.175,0.161L58.288,87.329c-1.909,1.963-5.048,2.007-7.009,0.097 c-1.962-1.907-2.007-5.045-0.098-7.009l18.473-18.889L51.181,42.479L51.181,42.479z"/>
    </symbol>
    <symbol id="circle-icon" viewBox="0 0 120 120">
        <title>Icon circle</title>
        <circle cx="60" cy="60" r="50"/>    
  </symbol>
</svg>

