<svg xmlns="http://www.w3.org/2000/svg">
    <symbol id="home-icon" viewBox="0 0 48 48">
        <title>Icon home</title>
        <path d="M 23.951172 4 A 1.50015 1.50015 0 0 0 23.072266 4.3222656 L 8.859375 15.519531 C 7.0554772 16.941163 6 19.113506 6 21.410156 L 6 40.5 C 6 41.863594 7.1364058 43 8.5 43 L 18.5 43 C 19.863594 43 21 41.863594 21 40.5 L 21 30.5 C 21 30.204955 21.204955 30 21.5 30 L 26.5 30 C 26.795045 30 27 30.204955 27 30.5 L 27 40.5 C 27 41.863594 28.136406 43 29.5 43 L 39.5 43 C 40.863594 43 42 41.863594 42 40.5 L 42 21.410156 C 42 19.113506 40.944523 16.941163 39.140625 15.519531 L 24.927734 4.3222656 A 1.50015 1.50015 0 0 0 23.951172 4 z M 24 7.4101562 L 37.285156 17.876953 C 38.369258 18.731322 39 20.030807 39 21.410156 L 39 40 L 30 40 L 30 30.5 C 30 28.585045 28.414955 27 26.5 27 L 21.5 27 C 19.585045 27 18 28.585045 18 30.5 L 18 40 L 9 40 L 9 21.410156 C 9 20.030807 9.6307412 18.731322 10.714844 17.876953 L 24 7.4101562 z"/>
    </symbol>
    <symbol id="portfolio-icon" viewBox="0 0 122.88 100.53">
        <title>Icon portfolio</title>
        <path d="M56.9,50.27h9.08c1.33,0,2.55,0.54,3.42,1.42c0.88,0.88,1.42,2.09,1.42,3.42v19.14c0,1.33-0.54,2.54-1.42,3.42 c-0.88,0.88-2.09,1.42-3.42,1.42H56.9c-1.33,0-2.54-0.54-3.42-1.42c-0.88-0.88-1.42-2.09-1.42-3.42V55.12 c0-1.33,0.54-2.55,1.42-3.42C54.36,50.82,55.57,50.27,56.9,50.27L56.9,50.27z M6.97,13.96h31.5V4.94c0-1.36,0.55-2.59,1.45-3.49 C40.81,0.55,42.05,0,43.41,0h36.06c1.36,0,2.59,0.55,3.49,1.45c0.89,0.89,1.45,2.13,1.45,3.49v9.03h31.5 c1.92,0,3.66,0.78,4.93,2.05c1.26,1.26,2.05,3.01,2.05,4.93v72.62c0,1.92-0.78,3.66-2.05,4.93c-1.26,1.26-3.01,2.05-4.93,2.05H6.97 c-1.92,0-3.66-0.78-4.93-2.05C0.78,97.22,0,95.48,0,93.56V20.94c0-1.92,0.78-3.66,2.05-4.93C3.31,14.75,5.05,13.96,6.97,13.96 L6.97,13.96z M79.47,4.33H43.41c-0.17,0-0.32,0.07-0.43,0.18c-0.11,0.11-0.18,0.26-0.18,0.43v8.93h37.28V4.94 c0-0.17-0.07-0.32-0.18-0.43C79.79,4.39,79.64,4.33,79.47,4.33L79.47,4.33z M4.32,55.63c15.93,4.58,27.71,6.55,43.65,7.29v4.33 c-15.93-0.73-27.71-2.65-43.65-7.14v33.44c0,0.73,0.3,1.39,0.78,1.87c0.48,0.48,1.14,0.78,1.87,0.78h108.93 c0.73,0,1.39-0.3,1.87-0.78c0.48-0.48,0.78-1.14,0.78-1.87V60.12c-15.91,4.48-26.98,6.4-42.88,7.13v-4.33 c15.91-0.75,26.98-2.72,42.88-7.29V20.94c0-0.73-0.3-1.39-0.78-1.87c-0.48-0.48-1.14-0.78-1.87-0.78H6.97 c-0.73,0-1.39,0.3-1.87,0.78c-0.48,0.48-0.78,1.14-0.78,1.87V55.63L4.32,55.63z M65.98,54.6H56.9c-0.14,0-0.27,0.06-0.36,0.15 c-0.09,0.09-0.15,0.22-0.15,0.36v19.14c0,0.14,0.06,0.27,0.15,0.36c0.09,0.1,0.22,0.15,0.36,0.15h9.08c0.14,0,0.27-0.06,0.36-0.15 c0.09-0.09,0.15-0.22,0.15-0.36V55.12c0-0.14-0.06-0.27-0.15-0.36C66.25,54.66,66.12,54.6,65.98,54.6L65.98,54.6z"/>
    </symbol>
    <symbol id="contact-icon" viewBox="0 0 122.88 88.86">
        <title>Icon contact</title>
        <path d="M7.05,0H115.83a7.07,7.07,0,0,1,7,7.05V81.81a7,7,0,0,1-1.22,4,2.78,2.78,0,0,1-.66,1,2.62,2.62,0,0,1-.66.46,7,7,0,0,1-4.51,1.65H7.05a7.07,7.07,0,0,1-7-7V7.05A7.07,7.07,0,0,1,7.05,0Zm-.3,78.84L43.53,40.62,6.75,9.54v69.3ZM49.07,45.39,9.77,83.45h103L75.22,45.39l-11,9.21h0a2.7,2.7,0,0,1-3.45,0L49.07,45.39Zm31.6-4.84,35.46,38.6V9.2L80.67,40.55ZM10.21,5.41,62.39,47.7,112.27,5.41Z"/>
    </symbol>
    <symbol id="go-icon" viewBox="0 0 122.88 122.88" >
        <title>Icon go</title>
        <path d="M61.439,0L61.439,0v0.016c-16.976,0-32.335,6.874-43.443,17.981S0.016,44.464,0.016,61.438H0v0.002l0,0h0.016 c0,16.978,6.874,32.336,17.981,43.444c11.107,11.106,26.467,17.98,43.441,17.98v0.016h0.002l0,0v-0.016 c16.977,0,32.336-6.874,43.443-17.98c11.107-11.108,17.981-26.467,17.981-43.441h0.016v-0.003l0,0h-0.016 c0-16.976-6.874-32.335-17.981-43.442S78.416,0.016,61.442,0.016V0H61.439L61.439,0z M51.181,42.479 c-1.909-1.964-1.864-5.1,0.098-7.01c1.961-1.909,5.1-1.866,7.009,0.098l21.838,22.519l-3.554,3.456l3.569-3.458 c1.91,1.971,1.862,5.116-0.108,7.027c-0.057,0.057-0.115,0.109-0.175,0.161L58.288,87.329c-1.909,1.963-5.048,2.007-7.009,0.097 c-1.962-1.907-2.007-5.045-0.098-7.009l18.473-18.889L51.181,42.479L51.181,42.479z"/>
    </symbol>
    <symbol id="github-icon" viewBox="0 0 640 640" >
        <title>Icon github</title>
        <path d="M319.988 7.973C143.293 7.973 0 151.242 0 327.96c0 141.392 91.678 261.298 218.826 303.63 16.004 2.964 21.886-6.957 21.886-15.414 0-7.63-.319-32.835-.449-59.552-89.032 19.359-107.8-37.772-107.8-37.772-14.552-36.993-35.529-46.831-35.529-46.831-29.032-19.879 2.209-19.442 2.209-19.442 32.126 2.245 49.04 32.954 49.04 32.954 28.56 48.922 74.883 34.76 93.131 26.598 2.882-20.681 11.15-34.807 20.315-42.803-71.08-8.067-145.797-35.516-145.797-158.14 0-34.926 12.52-63.485 32.965-85.88-3.33-8.078-14.291-40.606 3.083-84.674 0 0 26.87-8.61 88.029 32.8 25.512-7.075 52.878-10.642 80.056-10.76 27.2.118 54.614 3.673 80.162 10.76 61.076-41.386 87.922-32.8 87.922-32.8 17.398 44.08 6.485 76.631 3.154 84.675 20.516 22.394 32.93 50.953 32.93 85.879 0 122.907-74.883 149.93-146.117 157.856 11.481 9.921 21.733 29.398 21.733 59.233 0 42.792-.366 77.28-.366 87.804 0 8.516 5.764 18.473 21.992 15.354 127.076-42.354 218.637-162.274 218.637-303.582 0-176.695-143.269-319.988-320-319.988l-.023.107z"/>
    </symbol>
    <symbol id="ver-icon" viewBox="0 0 512 282.68">
        <title>Icon github</title>
        <path fill-rule="nonzero" d="M3.14 132.9c14.51-17.53 29.53-33.35 44.94-47.39 60.17-54.78 127.69-84 197.43-85.45 69.61-1.46 141.02 24.79 209.14 80.95 18.45 15.21 36.6 32.54 54.3 52 3.82 4.19 4.02 10.42.78 14.81-19.73 27.91-41.98 51.4-65.97 70.56-53.57 42.77-115.96 63.9-179.2 64.29-63.05.39-126.84-19.87-183.44-59.83-28.31-20-54.85-44.93-78.58-74.67-3.65-4.59-3.29-11.1.6-15.27zM256 83.24c32.09 0 58.1 26.01 58.1 58.1s-26.01 58.1-58.1 58.1-58.1-26.01-58.1-58.1c0-5.97.9-11.74 2.57-17.16 4.25 11.15 15.04 19.07 27.68 19.07 16.35 0 29.61-13.26 29.61-29.61 0-12.7-7.98-23.52-19.2-27.73 5.5-1.73 11.36-2.67 17.44-2.67zm107.24-33.52a141.453 141.453 0 0 1 23.1 37.7c6.92 16.67 10.74 34.9 10.74 53.92 0 19.03-3.82 37.26-10.73 53.94a141.479 141.479 0 0 1-30.6 45.8l-1.92 1.89c26.4-9.83 51.79-24.09 75.37-42.91 20.12-16.07 38.96-35.49 55.99-58.27-15-15.93-30.16-30.18-45.38-42.73-25.22-20.8-50.84-37.2-76.57-49.34zm-212.08 185.9c-10.65-11.81-19.33-25.44-25.5-40.32a140.518 140.518 0 0 1-10.74-53.96c0-19.01 3.81-37.22 10.72-53.87 6.85-16.52 16.75-31.46 28.96-44.1-31.5 13.33-61.97 33.25-90.76 59.44-12.7 11.57-25.04 24.3-36.95 38.17 20.74 24.71 43.54 45.64 67.69 62.71 18.19 12.84 37.15 23.5 56.58 31.93zM300.95 32.58c-13.78-5.71-28.98-8.88-44.94-8.88-15.94 0-31.12 3.17-44.93 8.9-14.34 5.95-27.32 14.73-38.23 25.64-10.88 10.89-19.64 23.85-25.6 38.2-5.71 13.79-8.88 28.97-8.88 44.9 0 15.96 3.17 31.17 8.9 44.98a117.654 117.654 0 0 0 25.58 38.19c10.86 10.84 23.84 19.6 38.24 25.57 13.8 5.72 28.98 8.88 44.92 8.88 15.95 0 31.15-3.17 44.96-8.88 14.36-5.93 27.32-14.7 38.2-25.57 10.88-10.88 19.64-23.84 25.57-38.16 5.72-13.85 8.89-29.05 8.89-45.01 0-15.95-3.17-31.14-8.89-44.95-5.93-14.37-14.69-27.33-25.57-38.21-10.86-10.86-23.84-19.63-38.22-25.6z"/>    </symbol>
    <symbol id="circle-icon" viewBox="0 0 120 120">
        <title>Icon circle</title>
        <circle cx="60" cy="60" r="50"/>    
  </symbol>
</svg>

